<svg width="183" height="37" viewBox="0 0 183 37" fill="none" xmlns="http://www.w3.org/2000/svg">
<path d="M25.7167 21.9439C25.6504 24.5094 24.8067 26.3252 23.1854 27.3913C21.5641 28.4573 18.9371 28.9903 15.3043 28.9903H3.65L4.30055 3.79171H16.5701C22.1365 3.79171 24.8624 6.01167 24.7477 10.4516C24.7287 11.1896 24.5818 11.8867 24.307 12.5427C24.044 13.1987 23.7143 13.7142 23.3179 14.0891C22.5492 14.8154 21.8571 15.2957 21.2416 15.53L20.8346 15.6354L20.8278 15.899C20.9796 15.9224 21.1661 15.9576 21.3876 16.0044C21.6322 16.063 22.0322 16.227 22.5878 16.4965C23.189 16.8128 23.6898 17.1583 24.0903 17.5332C24.5596 17.9667 24.9539 18.5817 25.2731 19.3783C25.5927 20.1632 25.7406 21.0184 25.7167 21.9439ZM19.7902 21.364C19.8447 19.2553 18.5301 18.201 15.8465 18.201H9.60628L9.44387 24.4918H15.6841C18.3677 24.4918 19.7364 23.4492 19.7902 21.364ZM18.7868 11.2072C18.837 9.26254 17.702 8.29021 15.3817 8.29021H9.86214L9.71062 14.1593H15.2302C17.5505 14.1593 18.736 13.1753 18.7868 11.2072ZM29.4452 23.912C29.493 22.061 30.2905 20.6728 31.8378 19.7473C33.3849 18.8336 35.3244 18.3767 37.6564 18.3767C38.8635 18.3767 39.9443 18.4997 40.8989 18.7457C41.8528 19.0151 42.5145 19.2612 42.8837 19.4837L43.4534 19.8879L43.5214 17.2521C43.5414 16.4789 43.2652 15.8287 42.6929 15.3015C42.1202 14.7861 41.1484 14.5284 39.7773 14.5284C38.7929 14.5284 37.9093 14.7099 37.1265 15.0731C36.3082 15.448 35.8891 16.022 35.8691 16.7952H30.543C30.6076 14.7451 31.4794 13.2046 33.1584 12.1737C34.8253 11.1545 37.065 10.6449 39.8775 10.6449C42.7252 10.6449 44.92 11.1955 46.4618 12.2967C48.0154 13.3979 48.7638 15.0497 48.7069 17.2521L48.5618 22.8752C48.543 23.6015 48.6179 24.1052 48.7864 24.3864C48.955 24.6676 49.256 24.8081 49.6896 24.8081L50.4491 24.6676L50.3375 28.9903C49.8861 29.2246 49.139 29.3418 48.096 29.3418C46.7483 29.3418 45.7364 29.0489 45.0601 28.4632C44.452 27.9594 44.0714 27.4967 43.9182 27.075L43.8191 26.829H43.5554C43.5542 26.8758 43.4929 26.9812 43.3715 27.1453C43.2503 27.2975 43.0164 27.5084 42.6696 27.7779C42.3345 28.0473 41.9357 28.2875 41.4732 28.4983C40.2634 29.0606 38.6917 29.3418 36.7581 29.3418C34.6253 29.3418 32.8619 28.879 31.4678 27.9536C30.0734 27.0398 29.3992 25.6926 29.4452 23.912ZM38.9862 25.4232C39.912 25.4232 40.7471 25.306 41.4914 25.0717C42.2003 24.8491 42.6925 24.6207 42.9681 24.3864L43.3458 24.0525L43.3735 22.9806C43.2822 22.8869 43.1617 22.7873 43.0121 22.6819C42.8162 22.553 42.3574 22.3949 41.6357 22.2074C40.8674 22.0083 40.0145 21.9087 39.077 21.9087C36.241 21.9087 34.8079 22.4945 34.7777 23.6659C34.7474 24.8374 36.1503 25.4232 38.9862 25.4232ZM72.3849 13.1577C74.006 14.8212 74.7792 17.0998 74.7045 19.9933C74.6298 22.8869 73.739 25.1654 72.032 26.829C70.3129 28.5042 68.2171 29.3418 65.7444 29.3418C64.9007 29.3418 64.095 29.2305 63.3273 29.0079C62.571 28.797 61.957 28.5217 61.4853 28.182C60.5996 27.5377 59.9821 26.9461 59.6327 26.4072L59.4664 26.0382H59.2028L59.1266 28.9903H53.941L54.5916 3.79171H59.7771L59.5344 13.1929H59.7629C59.8849 13.0054 60.2091 12.7067 60.7353 12.2967C61.1061 12.0038 61.5289 11.7402 62.0037 11.5059C63.1436 10.9319 64.5514 10.6449 66.2271 10.6449C68.6998 10.6449 70.7524 11.4825 72.3849 13.1577ZM67.9368 23.4024C68.8619 22.5237 69.3424 21.3874 69.3784 19.9933C69.4141 18.611 68.9924 17.4688 68.1133 16.5667C67.2337 15.6881 66.0262 15.2488 64.4911 15.2488C62.9911 15.2488 61.767 15.6823 60.8188 16.5492C59.8821 17.4278 59.3954 18.5758 59.3588 19.9933C59.3228 21.3874 59.7447 22.5237 60.6243 23.4024C61.492 24.2927 62.6992 24.7379 64.2461 24.7379C65.793 24.7379 67.0232 24.2927 67.9368 23.4024ZM75.8333 10.9963H81.2298L86.635 23.5957H86.9162L91.9524 10.9963H97.2786L89.2815 29.3418C88.1363 31.9425 86.9635 33.7934 85.7632 34.8946C84.5629 35.9958 83.0135 36.5464 81.1151 36.5464C80.7518 36.5464 80.2897 36.5171 79.7287 36.4586C79.2611 36.4117 78.8585 36.3473 78.5208 36.2653L78.0656 36.195L78.1826 31.6613C78.8427 31.9659 79.7121 32.1065 80.7909 32.0831C81.6346 32.0831 82.284 31.8956 82.739 31.5207C83.2063 31.1224 83.6586 30.3961 84.096 29.3418L75.8333 10.9963Z" fill="#FED50B"/>
<path d="M109.638 22.471H104.733L104.565 28.9903H98.8873L99.5379 3.79171H110.12C117.362 3.79171 120.903 6.91371 120.741 13.1577C120.581 19.3666 116.88 22.471 109.638 22.471ZM114.818 13.1577C114.896 10.1119 113.289 8.58894 109.996 8.58894H105.092L104.857 17.6914H109.761C113.054 17.6914 114.74 16.1802 114.818 13.1577ZM143.065 19.9933L142.924 21.364H127.983C127.955 22.4417 128.359 23.3672 129.194 24.1404C130.006 24.9253 131.197 25.3177 132.767 25.3177C133.658 25.3177 134.459 25.1654 135.17 24.8609C135.846 24.5563 136.293 24.2517 136.512 23.9471L136.857 23.5254H142.534C142.507 23.6894 142.449 23.8944 142.36 24.1404C142.259 24.4333 141.989 24.896 141.551 25.5286C141.088 26.2198 140.539 26.8172 139.905 27.321C139.212 27.8481 138.245 28.3109 137.004 28.7092C135.704 29.1309 134.257 29.3418 132.663 29.3418C129.593 29.3418 127.124 28.5159 125.257 26.8641C123.389 25.2123 122.493 22.9221 122.569 19.9933C122.644 17.0646 123.653 14.7744 125.594 13.1226C127.535 11.4708 130.029 10.6449 133.076 10.6449C136.099 10.6449 138.539 11.4708 140.395 13.1226C142.25 14.7744 143.14 17.0646 143.065 19.9933ZM136.441 15.776C135.628 15.038 134.472 14.6689 132.972 14.6689C131.472 14.6689 130.302 15.0438 129.462 15.7936C128.599 16.555 128.156 17.3575 128.135 18.201H137.592C137.614 17.3341 137.231 16.5257 136.441 15.776ZM148.334 22.1899L148.515 15.1785H145.879L145.956 12.1913L151.089 7.39402L153.902 7.39402L153.809 10.9963H159.416L159.308 15.1785H153.701L153.538 21.5046C153.503 22.8518 153.784 23.7772 154.38 24.281C154.976 24.7847 155.837 25.0366 156.962 25.0366C157.407 25.0366 157.848 24.9839 158.284 24.8784C158.733 24.773 159.064 24.6558 159.278 24.527L159.616 24.3864L159.504 28.7092C158.602 29.1426 157.466 29.3535 156.095 29.3418C153.435 29.3418 151.458 28.7619 150.163 27.6021C148.881 26.4424 148.271 24.6383 148.334 22.1899ZM179.927 16.5667H174.601C174.608 16.2622 174.585 16.022 174.531 15.8463C174.477 15.6706 174.354 15.4597 174.161 15.2137C173.763 14.7334 172.726 14.4932 171.051 14.4932C168.824 14.4932 167.697 15.0438 167.668 16.145C167.655 16.6722 168.096 17.0529 168.992 17.2872C169.853 17.5215 170.938 17.7031 172.248 17.8319C173.639 17.9608 174.917 18.1483 176.083 18.3943C177.342 18.652 178.417 19.2202 179.308 20.0988C180.188 20.9657 180.609 22.1313 180.571 23.5957C180.472 27.4498 177.276 29.3652 170.984 29.3418C164.749 29.3418 161.685 27.3034 161.79 23.2266L161.805 22.6643H167.131L167.116 23.2266C167.095 24.035 167.397 24.6148 168.02 24.9663C168.644 25.3177 169.665 25.4935 171.083 25.4935C173.802 25.4935 175.189 24.8843 175.244 23.6659C175.257 23.1388 174.945 22.7288 174.308 22.4359C173.683 22.1664 172.873 21.9849 171.879 21.8911C170.85 21.8209 169.804 21.692 168.743 21.5046C167.611 21.3054 166.569 21.0594 165.615 20.7665C164.674 20.4736 163.879 19.923 163.232 19.1147C162.596 18.3181 162.294 17.3165 162.325 16.1099C162.371 14.3292 163.192 12.9703 164.786 12.0331C166.369 11.1076 168.525 10.6449 171.255 10.6449C177.139 10.6332 180.029 12.6071 179.927 16.5667Z" fill="white"/>
</svg>
